# Blender 5.1.2
# www.blender.org
mtllib Meta.mtl
o Plane.002
v -14.822408 0.022444 2.431675
v -9.959058 0.022444 2.431675
v -14.822408 0.022444 -2.431675
v -9.959058 0.022444 -2.431675
v -14.453949 0.022444 2.063216
v -10.327517 0.022444 2.063216
v -10.327517 0.022444 -2.063216
v -14.453949 0.022444 -2.063216
vn -0.0000 1.0000 -0.0000
vt 0.715168 0.179633
vt 0.729952 0.179633
vt 0.728832 0.180754
vt 0.716288 0.180754
vt 0.729952 0.194417
vt 0.728832 0.193297
vt 0.715168 0.194417
vt 0.716288 0.193297
s 0
usemtl Juego
f 1/1/1 2/2/1 6/3/1 5/4/1
f 2/2/1 4/5/1 7/6/1 6/3/1
f 4/5/1 3/7/1 8/8/1 7/6/1
f 3/7/1 1/1/1 5/4/1 8/8/1
